<svg width="101" height="22" viewBox="0 0 101 22" fill="none" xmlns="http://www.w3.org/2000/svg">
<g clip-path="url(#clip0_3217_7990)">
<path d="M3.30913 14.5085C3.30913 15.7732 3.56589 16.7442 3.9015 17.3316C4.34151 18.101 4.99779 18.427 5.66686 18.427C6.52984 18.427 7.3193 18.1955 8.84069 15.9206C10.0595 14.0973 11.4957 11.5379 12.462 9.9334L14.0984 7.21508C15.2352 5.32723 16.551 3.22859 18.0596 1.80607C19.2912 0.645026 20.6198 0 21.9568 0C24.2016 0 26.3399 1.40639 27.9763 4.04408C29.7673 6.93288 30.6366 10.5715 30.6366 14.3265C30.6366 16.5587 30.2297 18.199 29.5372 19.4948C28.8681 20.748 27.564 22 25.3704 22V18.427C27.2487 18.427 27.7175 16.561 27.7175 14.4255C27.7175 11.3824 27.0612 8.00524 25.6154 5.59215C24.5894 3.88052 23.2598 2.83466 21.797 2.83466C20.2149 2.83466 18.9417 4.12471 17.5109 6.42492C16.7502 7.64702 15.9693 9.13634 15.0925 10.8169L14.1272 12.6655C12.1882 16.3825 11.697 17.2291 10.7275 18.6263C9.0282 21.0728 7.57713 22 5.66686 22C3.40076 22 1.96779 20.9392 1.08032 19.3404C0.355844 18.0377 0 16.3284 0 14.3806L3.30913 14.5085Z" fill="#0081FB"/>
<path d="M2.60925 4.29634C4.12638 1.76806 6.31578 0 8.82693 0C10.2812 0 11.7269 0.46534 13.2366 1.79801C14.888 3.25508 16.648 5.65435 18.8438 9.60859L19.6312 11.0276C21.5318 14.4509 22.6132 16.212 23.2461 17.0425C24.06 18.1091 24.63 18.427 25.3705 18.427C27.2488 18.427 27.7175 16.561 27.7175 14.4255L30.6367 14.3265C30.6367 16.5587 30.2298 18.199 29.5372 19.4948C28.8682 20.748 27.5641 22 25.3705 22C24.0067 22 22.7986 21.6798 21.4626 20.3172C20.4355 19.2713 19.2348 17.4134 18.3111 15.7432L15.5635 10.7812C14.1848 8.29089 12.9202 6.43414 12.1883 5.5933C11.4009 4.68911 10.3888 3.59717 8.77366 3.59717C7.46641 3.59717 6.35627 4.5889 5.42724 6.10586L2.60925 4.29634Z" fill="url(#paint0_linear_3217_7990)"/>
<path d="M8.77357 3.59717C7.46632 3.59717 6.35618 4.5889 5.42715 6.10586C4.11351 8.24942 3.30913 11.4423 3.30913 14.5085C3.30913 15.7732 3.56589 16.7442 3.9015 17.3316L1.08032 19.3404C0.355844 18.0377 0 16.3284 0 14.3806C0 10.8387 0.899198 7.14712 2.60916 4.29633C4.12629 1.76806 6.31569 0 8.82684 0L8.77357 3.59717Z" fill="url(#paint1_linear_3217_7990)"/>
<path d="M37.0696 0.69574H40.8976L47.4062 13.4258L53.9157 0.69574H57.6606V21.613H54.5379V5.58181L48.8295 16.6832H45.8997L40.1923 5.58181V21.613H37.0696V0.69574ZM67.4453 8.4948C65.2058 8.4948 63.857 10.317 63.5342 12.5734H71.1347C70.9781 10.249 69.738 8.4948 67.4453 8.4948ZM60.4381 13.8589C60.4381 9.11103 63.2764 5.65553 67.4996 5.65553C71.6536 5.65553 74.1338 9.06726 74.1338 14.1123V15.0395H63.5342C63.9103 17.4941 65.4167 19.1481 67.8459 19.1481C69.7838 19.1481 70.9952 18.5088 72.1437 17.3397L73.8025 19.5363C72.2396 21.0901 70.2515 21.9862 67.7351 21.9862C63.1634 21.9862 60.4381 18.3821 60.4381 13.8589ZM77.9203 8.79427H75.0458V6.02988H77.9203V1.45825H80.9332V6.02988H85.3003V8.79427H80.9332V15.8009C80.9332 18.1932 81.6407 19.0433 83.3794 19.0433C84.1731 19.0433 84.628 18.9696 85.3003 18.8486V21.5831C84.4629 21.8388 83.6638 21.9563 82.7987 21.9563C79.5461 21.9563 77.9203 20.035 77.9203 16.189V8.79427ZM97.9871 11.4826C97.3819 9.83092 96.0321 8.61459 94.0483 8.61459C91.47 8.61459 89.8197 10.5923 89.8197 13.814C89.8197 16.955 91.339 19.0283 93.9247 19.0283C95.9575 19.0283 97.4086 17.7498 97.9871 16.1591V11.4826ZM101 21.613H98.0425V19.4314C97.2157 20.7157 95.7114 21.9862 93.2748 21.9862C89.3563 21.9862 86.7375 18.4397 86.7375 13.814C86.7375 9.14443 89.4191 5.65553 93.441 5.65553C95.4291 5.65553 96.9888 6.5148 98.0425 8.03176V6.02988H101V21.613Z" fill="#192830"/>
</g>
<defs>
<linearGradient id="paint0_linear_3217_7990" x1="6.49903" y1="13.4764" x2="27.6017" y2="14.4623" gradientUnits="userSpaceOnUse">
<stop stop-color="#0064E1"/>
<stop offset="0.4" stop-color="#0064E1"/>
<stop offset="0.83" stop-color="#0073EE"/>
<stop offset="1" stop-color="#0082FB"/>
</linearGradient>
<linearGradient id="paint1_linear_3217_7990" x1="4.7943" y1="16.0105" x2="4.7943" y2="7.60209" gradientUnits="userSpaceOnUse">
<stop stop-color="#0082FB"/>
<stop offset="1" stop-color="#0064E0"/>
</linearGradient>
<clipPath id="clip0_3217_7990">
<rect width="101" height="22" fill="white"/>
</clipPath>
</defs>
</svg>
